<?xml version="1.0" encoding="UTF-8"?>
<svg width="10px" height="10px" viewBox="0 0 10 10" version="1.1" xmlns="http://www.w3.org/2000/svg" xmlns:xlink="http://www.w3.org/1999/xlink">
    <title>编组</title>
    <g id="页面-1" stroke="none" stroke-width="1" fill="none" fill-rule="evenodd">
        <g id="我的-个人主页" transform="translate(-22.000000, -365.000000)" fill="#DCAEF4" fill-rule="nonzero">
            <g id="编组" transform="translate(22.000000, 365.000000)">
                <path d="M7.4375,6.79999999 L5.8125,6.79999999 L5.8125,6.27999999 C7.19375,5.91999999 8.25,4.67999999 8.25,3.2 C8.25,1.44 6.7875,0 5,0 C3.2125,0 1.75,1.43999999 1.75,3.19999999 C1.75,4.67999999 2.80625,5.91999998 4.1875,6.27999998 L4.1875,6.79999999 L2.5625,6.79999999 C2.115625,6.79999999 1.75,7.15999999 1.75,7.59999999 C1.75,8.03999999 2.115625,8.39999999 2.5625,8.39999999 L4.1875,8.39999999 L4.1875,9.19999998 C4.1875,9.63999998 4.553125,10 5,10 C5.446875,10 5.8125,9.63999998 5.8125,9.19999998 L5.8125,8.39999999 L7.4375,8.39999999 C7.884375,8.39999999 8.25,8.03999999 8.25,7.59999999 C8.25,7.15999999 7.884375,6.79999999 7.4375,6.79999999 Z M3.375,3.19999999 C3.375,2.31999998 4.10625,1.59999998 5,1.59999998 C5.89375,1.59999998 6.625,2.31999998 6.625,3.19999999 C6.625,4.07999999 5.89375,4.79999999 5,4.79999999 C4.10625,4.79999999 3.375,4.07999999 3.375,3.19999999 Z" id="形状"></path>
            </g>
        </g>
    </g>
</svg>